<svg width="151" height="151" viewBox="0 0 151 151" fill="none" xmlns="http://www.w3.org/2000/svg">
<path d="M75.7197 150.21C117.141 150.21 150.72 116.631 150.72 75.21C150.72 33.7886 117.141 0.209961 75.7197 0.209961C34.2984 0.209961 0.719727 33.7886 0.719727 75.21C0.719727 116.631 34.2984 150.21 75.7197 150.21Z" fill="#35B6DB"/>
<path d="M85.95 95.9999C85.7373 95.698 85.4208 95.4852 85.061 95.4021C84.7012 95.3191 84.3234 95.3717 84 95.5499L74.025 101.715C72.3841 102.692 70.4322 103.006 68.5674 102.594C66.7027 102.181 65.0656 101.073 63.99 99.4949L50.49 77.4899C49.5339 75.9272 49.2354 74.0495 49.6598 72.2674C50.0843 70.4853 51.1971 68.9438 52.755 67.9799L63 61.5899C63.3159 61.3782 63.5397 61.0545 63.626 60.6841C63.7124 60.3137 63.6548 59.9244 63.465 59.5949L54.87 45.6449C54.6606 45.3264 54.3379 45.0995 53.9674 45.0104C53.5968 44.9212 53.2063 44.9765 52.875 45.1649L42.525 51.5999C31.065 58.6799 31.5 77.2948 43.5 96.8848C49.05 105.885 56.04 113.025 63.15 117.015C66.8215 119.194 70.9874 120.402 75.255 120.525C78.3778 120.539 81.4426 119.682 84.105 118.05L94.035 111.93C94.347 111.719 94.5681 111.398 94.6543 111.031C94.7405 110.664 94.6854 110.278 94.5 109.95L85.95 95.9999ZM82.65 115.5C76.335 119.355 69.375 117 64.65 114.39C57.9 110.655 51.345 103.89 46.05 95.2799C34.86 77.1449 34.05 60.1499 44.115 53.9699L53.25 48.3299L60.315 59.7899L51.18 65.4299C48.9686 66.7989 47.3915 68.99 46.7952 71.5215C46.1988 74.053 46.6322 76.7178 48 78.9299L61.5 100.935C62.979 103.16 65.2579 104.73 67.8638 105.319C70.4697 105.909 73.2025 105.472 75.495 104.1L84.255 98.6999L91.335 110.13L82.65 115.5Z" fill="white"/>
<path d="M73.7701 62.0849C76.2324 62.2329 78.6278 62.945 80.7712 64.166C82.9146 65.3871 84.7486 67.0845 86.1316 69.1272C87.5147 71.1698 88.4097 73.503 88.7475 75.9466C89.0853 78.3901 88.857 80.8786 88.0801 83.2199C88.0622 83.5482 88.1527 83.8733 88.3376 84.1452C88.5225 84.4171 88.7916 84.6206 89.1035 84.7246C89.4155 84.8286 89.7529 84.8272 90.064 84.7206C90.375 84.6141 90.6424 84.4083 90.8251 84.1349C91.6186 81.7761 91.9396 79.284 91.7698 76.8011C91.5999 74.3181 90.9424 71.893 89.835 69.6642C88.7276 67.4354 87.1919 65.4467 85.3156 63.8116C83.4394 62.1765 81.2593 60.9272 78.9001 60.1349C77.2963 59.591 75.626 59.2681 73.9351 59.1749C73.5688 59.1718 73.2141 59.3027 72.9378 59.5431C72.6615 59.7835 72.4827 60.1167 72.4351 60.4799C72.4332 60.853 72.5705 61.2135 72.8201 61.4908C73.0697 61.7682 73.4138 61.9426 73.7851 61.9799L73.7701 62.0849Z" fill="white"/>
<path d="M76.32 47.46C75.987 47.5024 75.6778 47.6554 75.442 47.8944C75.2063 48.1333 75.0574 48.4445 75.0194 48.778C74.9814 49.1116 75.0564 49.4482 75.2323 49.7341C75.4083 50.02 75.6751 50.2386 75.99 50.355C80.0294 50.8048 83.9218 52.1318 87.3949 54.2431C90.8679 56.3544 93.8377 59.199 96.0965 62.578C98.3554 65.9569 99.8486 69.7886 100.472 73.805C101.095 77.8213 100.833 81.9253 99.705 85.83C99.6871 86.1583 99.7776 86.4834 99.9625 86.7552C100.147 87.0271 100.417 87.2307 100.728 87.3347C101.04 87.4386 101.378 87.4372 101.689 87.3307C102 87.2241 102.267 87.0184 102.45 86.745C102.45 86.745 102.45 86.745 102.45 86.625C104.711 78.77 103.762 70.3385 99.8102 63.1832C95.8585 56.0279 89.2277 50.7341 81.375 48.465C79.7214 47.9878 78.0303 47.6516 76.32 47.46Z" fill="white"/>
<path d="M107.52 55.5002C104.289 50.5427 100.031 46.3367 95.0335 43.1667C90.0365 39.9966 84.4171 37.9364 78.5553 37.1251C78.1709 37.0819 77.7846 37.1888 77.4771 37.4236C77.1696 37.6584 76.9648 38.0029 76.9053 38.3851C76.8661 38.7672 76.9749 39.1497 77.2093 39.4538C77.4437 39.758 77.7859 39.9607 78.1653 40.0201C83.1729 40.7148 87.9946 42.3891 92.3551 44.9475C96.7155 47.5059 100.529 50.8983 103.578 54.9308C106.627 58.9634 108.852 63.5571 110.126 68.4497C111.399 73.3422 111.696 78.4377 111 83.4452C110.774 85.0487 110.448 86.6368 110.025 88.2002C110.029 88.5275 110.139 88.8448 110.339 89.1036C110.54 89.3624 110.82 89.5484 111.136 89.6334C111.452 89.7184 111.787 89.6976 112.09 89.5743C112.394 89.4509 112.648 89.2317 112.815 88.9502C114.342 83.3166 114.66 77.4236 113.747 71.6585C112.835 65.8934 110.713 60.3867 107.52 55.5002Z" fill="white"/>
</svg>
