<svg width="33" height="33" viewBox="0 0 33 33" fill="none" xmlns="http://www.w3.org/2000/svg">
<path d="M16.5 0L17.5567 9.15058L21.1486 0.668365L19.5845 9.74598L25.4206 2.61932L21.3623 10.8886L28.9699 5.6948L22.7463 12.4857L31.5089 9.64565L23.6242 14.4081L32.8321 14.1518L23.925 16.5L32.8321 18.8482L23.6242 18.5919L31.5089 23.3543L22.7463 20.5143L28.9699 27.3052L21.3623 22.1114L25.4206 30.3807L19.5845 23.254L21.1486 32.3316L17.5567 23.8494L16.5 33L15.4433 23.8494L11.8514 32.3316L13.4155 23.254L7.57943 30.3807L11.6377 22.1114L4.03013 27.3052L10.2537 20.5143L1.49107 23.3543L9.37576 18.5919L0.167946 18.8482L9.075 16.5L0.167946 14.1518L9.37576 14.4081L1.49107 9.64565L10.2537 12.4857L4.03013 5.6948L11.6377 10.8886L7.57943 2.61932L13.4155 9.74598L11.8514 0.668365L15.4433 9.15058L16.5 0Z" fill="#C4C4C4"/>
</svg>
