<svg width="72" height="73" viewBox="0 0 72 73" fill="none" xmlns="http://www.w3.org/2000/svg">
<path d="M36 0L38.3055 20.2422L46.1424 1.47851L42.7297 21.5593L55.4631 5.79425L46.6087 24.0868L63.207 12.5976L49.6283 27.62L68.7467 21.3374L51.5438 31.8725L71.6336 31.3055L52.2 36.5L71.6336 41.6945L51.5438 41.1275L68.7467 51.6626L49.6283 45.38L63.207 60.4024L46.6087 48.9132L55.4631 67.2057L42.7297 51.4407L46.1424 71.5215L38.3055 52.7578L36 73L33.6945 52.7578L25.8576 71.5215L29.2703 51.4407L16.5369 67.2057L25.3913 48.9132L8.79301 60.4024L22.3717 45.38L3.25325 51.6626L20.4562 41.1275L0.366428 41.6945L19.8 36.5L0.366428 31.3055L20.4562 31.8725L3.25325 21.3374L22.3717 27.62L8.79301 12.5976L25.3913 24.0868L16.5369 5.79425L29.2703 21.5593L25.8576 1.47851L33.6945 20.2422L36 0Z" fill="#C4C4C4"/>
</svg>
